<mxfile host="Electron" agent="Mozilla/5.0 (X11; Linux x86_64) AppleWebKit/537.36 (KHTML, like Gecko) draw.io/24.7.5 Chrome/126.0.6478.183 Electron/31.3.0 Safari/537.36" version="24.7.5">
  <diagram name="Page-1" id="0_rlszA0qYXHNxYHHLNV">
    <mxGraphModel dx="1414" dy="457" grid="1" gridSize="10" guides="1" tooltips="1" connect="1" arrows="1" fold="1" page="1" pageScale="1" pageWidth="850" pageHeight="1100" math="0" shadow="0">
      <root>
        <mxCell id="0" />
        <mxCell id="1" parent="0" />
        <mxCell id="5iq5i9mNIWf6YmemLm6V-1" value="&lt;b&gt;User&lt;/b&gt;" style="rounded=1;arcSize=10;whiteSpace=wrap;html=1;align=center;strokeWidth=2;" parent="1" vertex="1">
          <mxGeometry x="112.5" y="95" width="100" height="40" as="geometry" />
        </mxCell>
        <mxCell id="5iq5i9mNIWf6YmemLm6V-2" value="username" style="ellipse;whiteSpace=wrap;html=1;align=center;fontStyle=4;strokeWidth=1;" parent="1" vertex="1">
          <mxGeometry x="112.5" y="40" width="100" height="40" as="geometry" />
        </mxCell>
        <mxCell id="5iq5i9mNIWf6YmemLm6V-3" value="email" style="ellipse;whiteSpace=wrap;html=1;align=center;" parent="1" vertex="1">
          <mxGeometry x="2.5" y="95" width="100" height="40" as="geometry" />
        </mxCell>
        <mxCell id="5iq5i9mNIWf6YmemLm6V-5" value="&lt;b&gt;Service&lt;/b&gt;" style="rounded=1;arcSize=10;whiteSpace=wrap;html=1;align=center;strokeWidth=2;" parent="1" vertex="1">
          <mxGeometry x="-250" y="95" width="100" height="40" as="geometry" />
        </mxCell>
        <mxCell id="5iq5i9mNIWf6YmemLm6V-6" value="name" style="ellipse;whiteSpace=wrap;html=1;align=center;fontStyle=4;strokeWidth=1;" parent="1" vertex="1">
          <mxGeometry x="-250" y="40" width="100" height="40" as="geometry" />
        </mxCell>
        <mxCell id="5iq5i9mNIWf6YmemLm6V-7" value="description" style="ellipse;whiteSpace=wrap;html=1;align=center;" parent="1" vertex="1">
          <mxGeometry x="-360" y="95" width="100" height="40" as="geometry" />
        </mxCell>
        <mxCell id="5iq5i9mNIWf6YmemLm6V-8" value="script" style="ellipse;whiteSpace=wrap;html=1;align=center;" parent="1" vertex="1">
          <mxGeometry x="-140" y="95" width="100" height="40" as="geometry" />
        </mxCell>
        <mxCell id="5iq5i9mNIWf6YmemLm6V-9" value="&lt;b&gt;Role&lt;/b&gt;" style="rounded=1;arcSize=10;whiteSpace=wrap;html=1;align=center;strokeWidth=2;" parent="1" vertex="1">
          <mxGeometry x="-70" y="190" width="100" height="40" as="geometry" />
        </mxCell>
        <mxCell id="5iq5i9mNIWf6YmemLm6V-10" value="name" style="ellipse;whiteSpace=wrap;html=1;align=center;fontStyle=4;strokeWidth=1;" parent="1" vertex="1">
          <mxGeometry x="-70" y="140" width="100" height="40" as="geometry" />
        </mxCell>
        <mxCell id="5iq5i9mNIWf6YmemLm6V-11" value="description" style="ellipse;whiteSpace=wrap;html=1;align=center;" parent="1" vertex="1">
          <mxGeometry x="-70" y="240" width="100" height="40" as="geometry" />
        </mxCell>
        <mxCell id="5iq5i9mNIWf6YmemLm6V-12" value="" style="endArrow=none;html=1;rounded=0;exitX=0.5;exitY=1;exitDx=0;exitDy=0;entryX=0.5;entryY=0;entryDx=0;entryDy=0;" parent="1" source="5iq5i9mNIWf6YmemLm6V-2" target="5iq5i9mNIWf6YmemLm6V-1" edge="1">
          <mxGeometry width="50" height="50" relative="1" as="geometry">
            <mxPoint x="330" y="320" as="sourcePoint" />
            <mxPoint x="380" y="270" as="targetPoint" />
          </mxGeometry>
        </mxCell>
        <mxCell id="5iq5i9mNIWf6YmemLm6V-13" value="" style="endArrow=none;html=1;rounded=0;exitX=1;exitY=0.5;exitDx=0;exitDy=0;entryX=0;entryY=0.5;entryDx=0;entryDy=0;" parent="1" source="5iq5i9mNIWf6YmemLm6V-3" target="5iq5i9mNIWf6YmemLm6V-1" edge="1">
          <mxGeometry width="50" height="50" relative="1" as="geometry">
            <mxPoint x="330" y="320" as="sourcePoint" />
            <mxPoint x="380" y="270" as="targetPoint" />
          </mxGeometry>
        </mxCell>
        <mxCell id="5iq5i9mNIWf6YmemLm6V-15" value="" style="endArrow=none;html=1;rounded=0;exitX=1;exitY=0.5;exitDx=0;exitDy=0;entryX=0;entryY=0.5;entryDx=0;entryDy=0;" parent="1" source="5iq5i9mNIWf6YmemLm6V-7" target="5iq5i9mNIWf6YmemLm6V-5" edge="1">
          <mxGeometry width="50" height="50" relative="1" as="geometry">
            <mxPoint x="-90" y="230" as="sourcePoint" />
            <mxPoint x="-40" y="180" as="targetPoint" />
          </mxGeometry>
        </mxCell>
        <mxCell id="5iq5i9mNIWf6YmemLm6V-16" value="" style="endArrow=none;html=1;rounded=0;exitX=0.5;exitY=1;exitDx=0;exitDy=0;entryX=0.5;entryY=0;entryDx=0;entryDy=0;" parent="1" source="5iq5i9mNIWf6YmemLm6V-6" target="5iq5i9mNIWf6YmemLm6V-5" edge="1">
          <mxGeometry width="50" height="50" relative="1" as="geometry">
            <mxPoint x="-90" y="230" as="sourcePoint" />
            <mxPoint x="-40" y="180" as="targetPoint" />
          </mxGeometry>
        </mxCell>
        <mxCell id="5iq5i9mNIWf6YmemLm6V-17" value="" style="endArrow=none;html=1;rounded=0;exitX=1;exitY=0.5;exitDx=0;exitDy=0;entryX=0;entryY=0.5;entryDx=0;entryDy=0;" parent="1" source="5iq5i9mNIWf6YmemLm6V-5" target="5iq5i9mNIWf6YmemLm6V-8" edge="1">
          <mxGeometry width="50" height="50" relative="1" as="geometry">
            <mxPoint x="-90" y="230" as="sourcePoint" />
            <mxPoint x="-40" y="180" as="targetPoint" />
          </mxGeometry>
        </mxCell>
        <mxCell id="5iq5i9mNIWf6YmemLm6V-18" value="" style="endArrow=none;html=1;rounded=0;exitX=0.5;exitY=1;exitDx=0;exitDy=0;entryX=0.5;entryY=0;entryDx=0;entryDy=0;" parent="1" source="5iq5i9mNIWf6YmemLm6V-10" target="5iq5i9mNIWf6YmemLm6V-9" edge="1">
          <mxGeometry width="50" height="50" relative="1" as="geometry">
            <mxPoint x="-40" y="280" as="sourcePoint" />
            <mxPoint x="10" y="230" as="targetPoint" />
          </mxGeometry>
        </mxCell>
        <mxCell id="5iq5i9mNIWf6YmemLm6V-19" value="" style="endArrow=none;html=1;rounded=0;exitX=0;exitY=0.5;exitDx=0;exitDy=0;entryX=1;entryY=0.5;entryDx=0;entryDy=0;" parent="1" source="5iq5i9mNIWf6YmemLm6V-27" target="5iq5i9mNIWf6YmemLm6V-9" edge="1">
          <mxGeometry width="50" height="50" relative="1" as="geometry">
            <mxPoint x="370" y="350" as="sourcePoint" />
            <mxPoint x="500" y="300" as="targetPoint" />
            <Array as="points" />
          </mxGeometry>
        </mxCell>
        <mxCell id="5iq5i9mNIWf6YmemLm6V-20" value="" style="endArrow=none;html=1;rounded=0;entryX=0;entryY=0.5;entryDx=0;entryDy=0;exitX=1;exitY=0.5;exitDx=0;exitDy=0;" parent="1" source="5iq5i9mNIWf6YmemLm6V-26" target="5iq5i9mNIWf6YmemLm6V-9" edge="1">
          <mxGeometry width="50" height="50" relative="1" as="geometry">
            <mxPoint x="177" y="130" as="sourcePoint" />
            <mxPoint x="297" y="160" as="targetPoint" />
          </mxGeometry>
        </mxCell>
        <mxCell id="5iq5i9mNIWf6YmemLm6V-21" value="User role" style="shape=rhombus;perimeter=rhombusPerimeter;whiteSpace=wrap;html=1;align=center;" parent="1" vertex="1">
          <mxGeometry x="102.5" y="180" width="120" height="60" as="geometry" />
        </mxCell>
        <mxCell id="5iq5i9mNIWf6YmemLm6V-22" value="" style="endArrow=none;html=1;rounded=0;exitX=0.5;exitY=1;exitDx=0;exitDy=0;entryX=0.5;entryY=0;entryDx=0;entryDy=0;" parent="1" source="5iq5i9mNIWf6YmemLm6V-1" target="5iq5i9mNIWf6YmemLm6V-21" edge="1">
          <mxGeometry width="50" height="50" relative="1" as="geometry">
            <mxPoint x="450" y="260" as="sourcePoint" />
            <mxPoint x="520" y="245" as="targetPoint" />
            <Array as="points" />
          </mxGeometry>
        </mxCell>
        <mxCell id="5iq5i9mNIWf6YmemLm6V-23" value="Role service" style="shape=rhombus;perimeter=rhombusPerimeter;whiteSpace=wrap;html=1;align=center;" parent="1" vertex="1">
          <mxGeometry x="-260" y="180" width="120" height="60" as="geometry" />
        </mxCell>
        <mxCell id="5iq5i9mNIWf6YmemLm6V-24" value="" style="endArrow=none;html=1;rounded=0;exitX=0.5;exitY=1;exitDx=0;exitDy=0;entryX=0.5;entryY=0;entryDx=0;entryDy=0;" parent="1" source="5iq5i9mNIWf6YmemLm6V-28" target="5iq5i9mNIWf6YmemLm6V-23" edge="1">
          <mxGeometry width="50" height="50" relative="1" as="geometry">
            <mxPoint x="70" y="205" as="sourcePoint" />
            <mxPoint x="-200" y="180" as="targetPoint" />
          </mxGeometry>
        </mxCell>
        <mxCell id="5iq5i9mNIWf6YmemLm6V-29" value="" style="endArrow=none;html=1;rounded=0;exitX=0.5;exitY=1;exitDx=0;exitDy=0;entryX=0.5;entryY=0;entryDx=0;entryDy=0;" parent="1" source="5iq5i9mNIWf6YmemLm6V-9" target="5iq5i9mNIWf6YmemLm6V-11" edge="1">
          <mxGeometry width="50" height="50" relative="1" as="geometry">
            <mxPoint x="-260" y="270" as="sourcePoint" />
            <mxPoint x="-210" y="220" as="targetPoint" />
          </mxGeometry>
        </mxCell>
        <mxCell id="5iq5i9mNIWf6YmemLm6V-36" value="" style="endArrow=none;html=1;rounded=0;entryX=0.5;entryY=1;entryDx=0;entryDy=0;exitX=0.5;exitY=0;exitDx=0;exitDy=0;" parent="1" source="oJpGRDjbuP6UKvOXRU2A-36" edge="1">
          <mxGeometry width="50" height="50" relative="1" as="geometry">
            <mxPoint x="90" y="677" as="sourcePoint" />
            <mxPoint x="244.5" y="520" as="targetPoint" />
            <Array as="points" />
          </mxGeometry>
        </mxCell>
        <mxCell id="5iq5i9mNIWf6YmemLm6V-37" value="" style="endArrow=none;html=1;rounded=0;entryX=0.5;entryY=1;entryDx=0;entryDy=0;exitX=0;exitY=0.5;exitDx=0;exitDy=0;" parent="1" source="oJpGRDjbuP6UKvOXRU2A-32" target="5iq5i9mNIWf6YmemLm6V-54" edge="1">
          <mxGeometry width="50" height="50" relative="1" as="geometry">
            <mxPoint x="120" y="777" as="sourcePoint" />
            <mxPoint x="90" y="737" as="targetPoint" />
            <Array as="points">
              <mxPoint x="200" y="711" />
            </Array>
          </mxGeometry>
        </mxCell>
        <mxCell id="5iq5i9mNIWf6YmemLm6V-38" value="" style="endArrow=none;html=1;rounded=0;entryX=0.75;entryY=1;entryDx=0;entryDy=0;exitX=0.25;exitY=0;exitDx=0;exitDy=0;" parent="1" source="oJpGRDjbuP6UKvOXRU2A-21" edge="1">
          <mxGeometry width="50" height="50" relative="1" as="geometry">
            <mxPoint x="250" y="677" as="sourcePoint" />
            <mxPoint x="485" y="520" as="targetPoint" />
            <Array as="points" />
          </mxGeometry>
        </mxCell>
        <mxCell id="5iq5i9mNIWf6YmemLm6V-39" value="" style="endArrow=none;html=1;rounded=0;entryX=0.5;entryY=0;entryDx=0;entryDy=0;exitX=0.5;exitY=1;exitDx=0;exitDy=0;" parent="1" target="LrbtKrgW1hB7gZl7j8Xs-1" edge="1" source="5iq5i9mNIWf6YmemLm6V-42">
          <mxGeometry width="50" height="50" relative="1" as="geometry">
            <mxPoint x="540" y="670" as="sourcePoint" />
            <mxPoint x="407.5" y="548" as="targetPoint" />
            <Array as="points" />
          </mxGeometry>
        </mxCell>
        <mxCell id="5iq5i9mNIWf6YmemLm6V-44" value="description" style="ellipse;whiteSpace=wrap;html=1;align=center;" parent="1" vertex="1">
          <mxGeometry x="397.5" y="790" width="100" height="40" as="geometry" />
        </mxCell>
        <mxCell id="5iq5i9mNIWf6YmemLm6V-45" value="salary" style="ellipse;whiteSpace=wrap;html=1;align=center;" parent="1" vertex="1">
          <mxGeometry x="580" y="790" width="100" height="40" as="geometry" />
        </mxCell>
        <mxCell id="5iq5i9mNIWf6YmemLm6V-47" value="" style="endArrow=none;html=1;rounded=0;exitX=1;exitY=0.5;exitDx=0;exitDy=0;entryX=0.25;entryY=1;entryDx=0;entryDy=0;" parent="1" source="5iq5i9mNIWf6YmemLm6V-44" target="LrbtKrgW1hB7gZl7j8Xs-1" edge="1">
          <mxGeometry width="50" height="50" relative="1" as="geometry">
            <mxPoint x="417.5" y="720" as="sourcePoint" />
            <mxPoint x="332.5" y="740" as="targetPoint" />
            <Array as="points">
              <mxPoint x="515" y="810" />
            </Array>
          </mxGeometry>
        </mxCell>
        <mxCell id="5iq5i9mNIWf6YmemLm6V-49" value="" style="endArrow=none;html=1;rounded=0;exitX=0;exitY=0.5;exitDx=0;exitDy=0;entryX=0.75;entryY=1;entryDx=0;entryDy=0;" parent="1" source="5iq5i9mNIWf6YmemLm6V-45" target="LrbtKrgW1hB7gZl7j8Xs-1" edge="1">
          <mxGeometry width="50" height="50" relative="1" as="geometry">
            <mxPoint x="417.5" y="720" as="sourcePoint" />
            <mxPoint x="382.5" y="740" as="targetPoint" />
            <Array as="points">
              <mxPoint x="565" y="810" />
            </Array>
          </mxGeometry>
        </mxCell>
        <mxCell id="5iq5i9mNIWf6YmemLm6V-50" value="&lt;u&gt;name&lt;/u&gt;" style="ellipse;whiteSpace=wrap;html=1;align=center;" parent="1" vertex="1">
          <mxGeometry x="600" y="730" width="100" height="40" as="geometry" />
        </mxCell>
        <mxCell id="5iq5i9mNIWf6YmemLm6V-51" value="" style="endArrow=none;html=1;rounded=0;exitX=0;exitY=0.5;exitDx=0;exitDy=0;entryX=1;entryY=0.5;entryDx=0;entryDy=0;" parent="1" source="5iq5i9mNIWf6YmemLm6V-50" target="LrbtKrgW1hB7gZl7j8Xs-1" edge="1">
          <mxGeometry width="50" height="50" relative="1" as="geometry">
            <mxPoint x="267.5" y="760" as="sourcePoint" />
            <mxPoint x="307.5" y="740" as="targetPoint" />
            <Array as="points" />
          </mxGeometry>
        </mxCell>
        <mxCell id="5iq5i9mNIWf6YmemLm6V-52" value="&lt;b&gt;Job&lt;/b&gt;" style="shape=ext;margin=3;double=1;whiteSpace=wrap;html=1;align=center;rounded=1;shadow=0;glass=0;strokeWidth=2;" parent="1" vertex="1">
          <mxGeometry x="327.5" y="681" width="100" height="40" as="geometry" />
        </mxCell>
        <mxCell id="5iq5i9mNIWf6YmemLm6V-54" value="Past employment" style="shape=rhombus;double=1;perimeter=rhombusPerimeter;whiteSpace=wrap;html=1;align=center;" parent="1" vertex="1">
          <mxGeometry x="140" y="585" width="120" height="60" as="geometry" />
        </mxCell>
        <mxCell id="5iq5i9mNIWf6YmemLm6V-55" value="&lt;u&gt;name&lt;/u&gt;" style="ellipse;whiteSpace=wrap;html=1;align=center;" parent="1" vertex="1">
          <mxGeometry x="380" y="913" width="100" height="40" as="geometry" />
        </mxCell>
        <mxCell id="5iq5i9mNIWf6YmemLm6V-56" value="level" style="ellipse;whiteSpace=wrap;html=1;align=center;" parent="1" vertex="1">
          <mxGeometry x="600" y="913" width="100" height="40" as="geometry" />
        </mxCell>
        <mxCell id="5iq5i9mNIWf6YmemLm6V-57" value="" style="endArrow=none;html=1;rounded=0;entryX=1;entryY=0.5;entryDx=0;entryDy=0;exitX=0;exitY=0.5;exitDx=0;exitDy=0;" parent="1" target="5iq5i9mNIWf6YmemLm6V-55" edge="1" source="5iq5i9mNIWf6YmemLm6V-103">
          <mxGeometry relative="1" as="geometry">
            <mxPoint x="490" y="923" as="sourcePoint" />
            <mxPoint x="700" y="893" as="targetPoint" />
            <Array as="points" />
          </mxGeometry>
        </mxCell>
        <mxCell id="5iq5i9mNIWf6YmemLm6V-58" value="" style="endArrow=none;html=1;rounded=0;exitX=0;exitY=0.5;exitDx=0;exitDy=0;entryX=1;entryY=0.5;entryDx=0;entryDy=0;" parent="1" source="5iq5i9mNIWf6YmemLm6V-56" edge="1" target="5iq5i9mNIWf6YmemLm6V-103">
          <mxGeometry relative="1" as="geometry">
            <mxPoint x="540" y="893" as="sourcePoint" />
            <mxPoint x="590" y="923" as="targetPoint" />
            <Array as="points" />
          </mxGeometry>
        </mxCell>
        <mxCell id="5iq5i9mNIWf6YmemLm6V-59" value="" style="endArrow=none;html=1;rounded=0;exitX=0.5;exitY=1;exitDx=0;exitDy=0;entryX=0.5;entryY=0;entryDx=0;entryDy=0;" parent="1" target="5iq5i9mNIWf6YmemLm6V-60" edge="1">
          <mxGeometry relative="1" as="geometry">
            <mxPoint x="540" y="943" as="sourcePoint" />
            <mxPoint x="780" y="1033" as="targetPoint" />
          </mxGeometry>
        </mxCell>
        <mxCell id="5iq5i9mNIWf6YmemLm6V-60" value="description" style="ellipse;whiteSpace=wrap;html=1;align=center;" parent="1" vertex="1">
          <mxGeometry x="490" y="960" width="100" height="40" as="geometry" />
        </mxCell>
        <mxCell id="5iq5i9mNIWf6YmemLm6V-61" value="description" style="ellipse;whiteSpace=wrap;html=1;align=center;" parent="1" vertex="1">
          <mxGeometry x="190" y="220" width="100" height="40" as="geometry" />
        </mxCell>
        <mxCell id="5iq5i9mNIWf6YmemLm6V-62" value="&lt;b&gt;Profile&lt;/b&gt;" style="rounded=1;arcSize=10;whiteSpace=wrap;html=1;align=center;strokeWidth=2;" parent="1" vertex="1">
          <mxGeometry x="302.5" y="238" width="100" height="40" as="geometry" />
        </mxCell>
        <mxCell id="5iq5i9mNIWf6YmemLm6V-63" value="User profile" style="shape=rhombus;perimeter=rhombusPerimeter;whiteSpace=wrap;html=1;align=center;" parent="1" vertex="1">
          <mxGeometry x="292.5" y="85" width="120" height="60" as="geometry" />
        </mxCell>
        <mxCell id="5iq5i9mNIWf6YmemLm6V-64" value="" style="endArrow=none;html=1;rounded=0;entryX=1;entryY=0.5;entryDx=0;entryDy=0;exitX=0;exitY=0.5;exitDx=0;exitDy=0;" parent="1" source="5iq5i9mNIWf6YmemLm6V-25" target="5iq5i9mNIWf6YmemLm6V-1" edge="1">
          <mxGeometry width="50" height="50" relative="1" as="geometry">
            <mxPoint x="220" y="460" as="sourcePoint" />
            <mxPoint x="270" y="410" as="targetPoint" />
          </mxGeometry>
        </mxCell>
        <mxCell id="5iq5i9mNIWf6YmemLm6V-65" value="" style="endArrow=none;html=1;rounded=0;entryX=0.5;entryY=1;entryDx=0;entryDy=0;exitX=0.5;exitY=0;exitDx=0;exitDy=0;" parent="1" source="5iq5i9mNIWf6YmemLm6V-67" target="5iq5i9mNIWf6YmemLm6V-63" edge="1">
          <mxGeometry width="50" height="50" relative="1" as="geometry">
            <mxPoint x="220" y="460" as="sourcePoint" />
            <mxPoint x="270" y="410" as="targetPoint" />
          </mxGeometry>
        </mxCell>
        <mxCell id="5iq5i9mNIWf6YmemLm6V-68" value="" style="endArrow=none;html=1;rounded=0;entryX=0;entryY=0.25;entryDx=0;entryDy=0;exitX=1;exitY=0.5;exitDx=0;exitDy=0;" parent="1" source="5iq5i9mNIWf6YmemLm6V-61" target="5iq5i9mNIWf6YmemLm6V-62" edge="1">
          <mxGeometry width="50" height="50" relative="1" as="geometry">
            <mxPoint x="260" y="572" as="sourcePoint" />
            <mxPoint x="260" y="464" as="targetPoint" />
          </mxGeometry>
        </mxCell>
        <mxCell id="5iq5i9mNIWf6YmemLm6V-69" value="surname" style="ellipse;whiteSpace=wrap;html=1;align=center;" parent="1" vertex="1">
          <mxGeometry x="84.5" y="461.75" width="100" height="40" as="geometry" />
        </mxCell>
        <mxCell id="5iq5i9mNIWf6YmemLm6V-70" value="" style="endArrow=none;html=1;rounded=0;exitX=1;exitY=0.5;exitDx=0;exitDy=0;entryX=0;entryY=0.25;entryDx=0;entryDy=0;" parent="1" source="5iq5i9mNIWf6YmemLm6V-69" edge="1">
          <mxGeometry width="50" height="50" relative="1" as="geometry">
            <mxPoint x="324.5" y="474" as="sourcePoint" />
            <mxPoint x="194.5" y="490" as="targetPoint" />
          </mxGeometry>
        </mxCell>
        <mxCell id="5iq5i9mNIWf6YmemLm6V-71" value="age" style="ellipse;whiteSpace=wrap;html=1;align=center;" parent="1" vertex="1">
          <mxGeometry x="300" y="480" width="100" height="40" as="geometry" />
        </mxCell>
        <mxCell id="5iq5i9mNIWf6YmemLm6V-72" value="" style="endArrow=none;html=1;rounded=0;exitX=0;exitY=0.5;exitDx=0;exitDy=0;entryX=1;entryY=0.5;entryDx=0;entryDy=0;" parent="1" source="5iq5i9mNIWf6YmemLm6V-71" edge="1">
          <mxGeometry width="50" height="50" relative="1" as="geometry">
            <mxPoint x="314.5" y="554" as="sourcePoint" />
            <mxPoint x="294.5" y="500" as="targetPoint" />
            <Array as="points" />
          </mxGeometry>
        </mxCell>
        <mxCell id="5iq5i9mNIWf6YmemLm6V-76" value="" style="endArrow=none;html=1;rounded=0;exitX=1;exitY=0.5;exitDx=0;exitDy=0;entryX=0;entryY=0.5;entryDx=0;entryDy=0;" parent="1" source="5iq5i9mNIWf6YmemLm6V-145" target="5iq5i9mNIWf6YmemLm6V-152" edge="1">
          <mxGeometry width="50" height="50" relative="1" as="geometry">
            <mxPoint x="260" y="444" as="sourcePoint" />
            <mxPoint x="280" y="402" as="targetPoint" />
            <Array as="points" />
          </mxGeometry>
        </mxCell>
        <mxCell id="5iq5i9mNIWf6YmemLm6V-78" value="" style="endArrow=none;html=1;rounded=0;entryX=1;entryY=1;entryDx=0;entryDy=0;exitX=0;exitY=0.5;exitDx=0;exitDy=0;" parent="1" source="5iq5i9mNIWf6YmemLm6V-166" target="5iq5i9mNIWf6YmemLm6V-62" edge="1">
          <mxGeometry width="50" height="50" relative="1" as="geometry">
            <mxPoint x="50" y="410" as="sourcePoint" />
            <mxPoint x="210" y="460" as="targetPoint" />
            <Array as="points" />
          </mxGeometry>
        </mxCell>
        <mxCell id="5iq5i9mNIWf6YmemLm6V-79" value="city" style="ellipse;whiteSpace=wrap;html=1;align=center;" parent="1" vertex="1">
          <mxGeometry x="690" y="364" width="100" height="40" as="geometry" />
        </mxCell>
        <mxCell id="5iq5i9mNIWf6YmemLm6V-80" value="country" style="ellipse;whiteSpace=wrap;html=1;align=center;" parent="1" vertex="1">
          <mxGeometry x="570" y="314" width="100" height="40" as="geometry" />
        </mxCell>
        <mxCell id="5iq5i9mNIWf6YmemLm6V-81" value="postal code" style="ellipse;whiteSpace=wrap;html=1;align=center;" parent="1" vertex="1">
          <mxGeometry x="680" y="314" width="100" height="40" as="geometry" />
        </mxCell>
        <mxCell id="5iq5i9mNIWf6YmemLm6V-82" value="phone number" style="ellipse;whiteSpace=wrap;html=1;align=center;" parent="1" vertex="1">
          <mxGeometry x="190" y="263" width="100" height="40" as="geometry" />
        </mxCell>
        <mxCell id="5iq5i9mNIWf6YmemLm6V-89" value="civic" style="ellipse;whiteSpace=wrap;html=1;align=center;" parent="1" vertex="1">
          <mxGeometry x="570" y="416" width="100" height="40" as="geometry" />
        </mxCell>
        <mxCell id="5iq5i9mNIWf6YmemLm6V-91" value="street" style="ellipse;whiteSpace=wrap;html=1;align=center;" parent="1" vertex="1">
          <mxGeometry x="680" y="416" width="100" height="40" as="geometry" />
        </mxCell>
        <mxCell id="5iq5i9mNIWf6YmemLm6V-96" value="&lt;u&gt;name&lt;/u&gt;" style="ellipse;whiteSpace=wrap;html=1;align=center;" parent="1" vertex="1">
          <mxGeometry x="-300" y="430" width="100" height="40" as="geometry" />
        </mxCell>
        <mxCell id="5iq5i9mNIWf6YmemLm6V-97" value="level" style="ellipse;whiteSpace=wrap;html=1;align=center;" parent="1" vertex="1">
          <mxGeometry x="-190" y="377" width="100" height="40" as="geometry" />
        </mxCell>
        <mxCell id="5iq5i9mNIWf6YmemLm6V-99" value="" style="endArrow=none;html=1;rounded=0;exitX=0.5;exitY=1;exitDx=0;exitDy=0;entryX=0.5;entryY=0;entryDx=0;entryDy=0;" parent="1" source="5iq5i9mNIWf6YmemLm6V-97" edge="1" target="5iq5i9mNIWf6YmemLm6V-110">
          <mxGeometry relative="1" as="geometry">
            <mxPoint x="-140" y="420" as="sourcePoint" />
            <mxPoint x="-230" y="420" as="targetPoint" />
            <Array as="points">
              <mxPoint x="-140" y="420" />
            </Array>
          </mxGeometry>
        </mxCell>
        <mxCell id="5iq5i9mNIWf6YmemLm6V-100" value="" style="endArrow=none;html=1;rounded=0;exitX=0.5;exitY=1;exitDx=0;exitDy=0;entryX=0.5;entryY=0;entryDx=0;entryDy=0;" parent="1" target="5iq5i9mNIWf6YmemLm6V-101" edge="1">
          <mxGeometry relative="1" as="geometry">
            <mxPoint x="-140" y="470" as="sourcePoint" />
            <mxPoint x="100" y="560" as="targetPoint" />
          </mxGeometry>
        </mxCell>
        <mxCell id="5iq5i9mNIWf6YmemLm6V-101" value="description" style="ellipse;whiteSpace=wrap;html=1;align=center;" parent="1" vertex="1">
          <mxGeometry x="-190" y="480" width="100" height="40" as="geometry" />
        </mxCell>
        <mxCell id="5iq5i9mNIWf6YmemLm6V-102" value="" style="endArrow=none;html=1;rounded=0;entryX=0.25;entryY=0;entryDx=0;entryDy=0;exitX=1;exitY=0.5;exitDx=0;exitDy=0;" parent="1" source="5iq5i9mNIWf6YmemLm6V-120" edge="1">
          <mxGeometry width="50" height="50" relative="1" as="geometry">
            <mxPoint x="-220" y="560" as="sourcePoint" />
            <mxPoint x="219.5" y="480" as="targetPoint" />
            <Array as="points">
              <mxPoint x="220" y="450" />
            </Array>
          </mxGeometry>
        </mxCell>
        <mxCell id="5iq5i9mNIWf6YmemLm6V-103" value="&lt;b&gt;Requirement&lt;/b&gt;" style="shape=ext;margin=3;double=1;whiteSpace=wrap;html=1;align=center;rounded=1;shadow=0;glass=0;strokeWidth=2;" parent="1" vertex="1">
          <mxGeometry x="490" y="913" width="100" height="40" as="geometry" />
        </mxCell>
        <mxCell id="5iq5i9mNIWf6YmemLm6V-104" value="Requires" style="shape=rhombus;double=1;perimeter=rhombusPerimeter;whiteSpace=wrap;html=1;align=center;" parent="1" vertex="1">
          <mxGeometry x="480" y="813" width="120" height="60" as="geometry" />
        </mxCell>
        <mxCell id="5iq5i9mNIWf6YmemLm6V-106" value="" style="endArrow=none;html=1;rounded=0;entryX=0.5;entryY=1;entryDx=0;entryDy=0;exitX=0.5;exitY=0;exitDx=0;exitDy=0;" parent="1" source="5iq5i9mNIWf6YmemLm6V-108" target="LrbtKrgW1hB7gZl7j8Xs-1" edge="1">
          <mxGeometry width="50" height="50" relative="1" as="geometry">
            <mxPoint x="327.5" y="873" as="sourcePoint" />
            <mxPoint x="377.5" y="823" as="targetPoint" />
          </mxGeometry>
        </mxCell>
        <mxCell id="5iq5i9mNIWf6YmemLm6V-107" value="" style="endArrow=none;html=1;rounded=0;exitX=0.5;exitY=0;exitDx=0;exitDy=0;entryX=0.5;entryY=1;entryDx=0;entryDy=0;" parent="1" source="5iq5i9mNIWf6YmemLm6V-109" target="5iq5i9mNIWf6YmemLm6V-104" edge="1">
          <mxGeometry width="50" height="50" relative="1" as="geometry">
            <mxPoint x="502.5" y="873" as="sourcePoint" />
            <mxPoint x="552.5" y="823" as="targetPoint" />
          </mxGeometry>
        </mxCell>
        <mxCell id="5iq5i9mNIWf6YmemLm6V-110" value="&lt;b&gt;Skill&lt;/b&gt;" style="shape=ext;margin=3;double=1;whiteSpace=wrap;html=1;align=center;rounded=1;shadow=0;glass=0;strokeWidth=2;" parent="1" vertex="1">
          <mxGeometry x="-190" y="430" width="100" height="40" as="geometry" />
        </mxCell>
        <mxCell id="5iq5i9mNIWf6YmemLm6V-112" value="" style="endArrow=none;html=1;rounded=0;entryX=0;entryY=0.5;entryDx=0;entryDy=0;exitX=1;exitY=0.5;exitDx=0;exitDy=0;" parent="1" target="5iq5i9mNIWf6YmemLm6V-111" edge="1" source="5iq5i9mNIWf6YmemLm6V-119">
          <mxGeometry width="50" height="50" relative="1" as="geometry">
            <mxPoint x="-220" y="560" as="sourcePoint" />
            <mxPoint x="65" y="607" as="targetPoint" />
            <Array as="points" />
          </mxGeometry>
        </mxCell>
        <mxCell id="5iq5i9mNIWf6YmemLm6V-111" value="Possesses" style="shape=rhombus;double=1;perimeter=rhombusPerimeter;whiteSpace=wrap;html=1;align=center;" parent="1" vertex="1">
          <mxGeometry x="-33" y="420" width="120" height="60" as="geometry" />
        </mxCell>
        <mxCell id="5iq5i9mNIWf6YmemLm6V-113" value="Profile expertise" style="shape=rhombus;perimeter=rhombusPerimeter;whiteSpace=wrap;html=1;align=center;" parent="1" vertex="1">
          <mxGeometry x="184.5" y="357" width="120" height="60" as="geometry" />
        </mxCell>
        <mxCell id="5iq5i9mNIWf6YmemLm6V-115" value="" style="endArrow=none;html=1;rounded=0;entryX=0;entryY=0.5;entryDx=0;entryDy=0;" parent="1" source="5iq5i9mNIWf6YmemLm6V-128" target="5iq5i9mNIWf6YmemLm6V-113" edge="1">
          <mxGeometry width="50" height="50" relative="1" as="geometry">
            <mxPoint x="65" y="387" as="sourcePoint" />
            <mxPoint x="-115" y="353" as="targetPoint" />
          </mxGeometry>
        </mxCell>
        <mxCell id="5iq5i9mNIWf6YmemLm6V-116" value="&lt;b&gt;Expertise&lt;/b&gt;" style="rounded=1;arcSize=10;whiteSpace=wrap;html=1;align=center;strokeWidth=2;" parent="1" vertex="1">
          <mxGeometry x="40" y="367" width="100" height="40" as="geometry" />
        </mxCell>
        <mxCell id="5iq5i9mNIWf6YmemLm6V-117" value="title" style="ellipse;whiteSpace=wrap;html=1;align=center;fontStyle=4;strokeWidth=1;" parent="1" vertex="1">
          <mxGeometry x="40" y="317" width="100" height="40" as="geometry" />
        </mxCell>
        <mxCell id="5iq5i9mNIWf6YmemLm6V-118" value="" style="endArrow=none;html=1;rounded=0;exitX=0.5;exitY=0;exitDx=0;exitDy=0;entryX=0.5;entryY=1;entryDx=0;entryDy=0;" parent="1" source="5iq5i9mNIWf6YmemLm6V-116" target="5iq5i9mNIWf6YmemLm6V-117" edge="1">
          <mxGeometry width="50" height="50" relative="1" as="geometry">
            <mxPoint x="-175" y="400" as="sourcePoint" />
            <mxPoint x="-125" y="350" as="targetPoint" />
          </mxGeometry>
        </mxCell>
        <mxCell id="5iq5i9mNIWf6YmemLm6V-122" value="Current employment" style="shape=rhombus;double=1;perimeter=rhombusPerimeter;whiteSpace=wrap;html=1;align=center;" parent="1" vertex="1">
          <mxGeometry x="234" y="610" width="120" height="60" as="geometry" />
        </mxCell>
        <mxCell id="5iq5i9mNIWf6YmemLm6V-123" value="" style="endArrow=none;html=1;rounded=0;entryX=0.75;entryY=1;entryDx=0;entryDy=0;exitX=0.5;exitY=0;exitDx=0;exitDy=0;" parent="1" source="oJpGRDjbuP6UKvOXRU2A-38" edge="1">
          <mxGeometry width="50" height="50" relative="1" as="geometry">
            <mxPoint x="294" y="615" as="sourcePoint" />
            <mxPoint x="269.5" y="520" as="targetPoint" />
            <Array as="points" />
          </mxGeometry>
        </mxCell>
        <mxCell id="5iq5i9mNIWf6YmemLm6V-125" value="" style="endArrow=none;html=1;rounded=0;entryX=0.5;entryY=1;entryDx=0;entryDy=0;exitX=0.5;exitY=0;exitDx=0;exitDy=0;" parent="1" source="oJpGRDjbuP6UKvOXRU2A-34" target="5iq5i9mNIWf6YmemLm6V-122" edge="1">
          <mxGeometry width="50" height="50" relative="1" as="geometry">
            <mxPoint x="165" y="710" as="sourcePoint" />
            <mxPoint x="125" y="657" as="targetPoint" />
            <Array as="points" />
          </mxGeometry>
        </mxCell>
        <mxCell id="5iq5i9mNIWf6YmemLm6V-129" value="quantity" style="ellipse;whiteSpace=wrap;html=1;align=center;" parent="1" vertex="1">
          <mxGeometry x="610" y="575" width="100" height="40" as="geometry" />
        </mxCell>
        <mxCell id="5iq5i9mNIWf6YmemLm6V-135" value="Application" style="shape=rhombus;perimeter=rhombusPerimeter;whiteSpace=wrap;html=1;align=center;" parent="1" vertex="1">
          <mxGeometry x="53" y="555" width="120" height="60" as="geometry" />
        </mxCell>
        <mxCell id="5iq5i9mNIWf6YmemLm6V-140" value="date" style="ellipse;whiteSpace=wrap;html=1;align=center;" parent="1" vertex="1">
          <mxGeometry x="-33" y="541.75" width="100" height="40" as="geometry" />
        </mxCell>
        <mxCell id="5iq5i9mNIWf6YmemLm6V-141" value="" style="endArrow=none;html=1;rounded=0;entryX=1;entryY=0.5;entryDx=0;entryDy=0;exitX=0;exitY=0;exitDx=0;exitDy=0;" parent="1" source="5iq5i9mNIWf6YmemLm6V-135" target="5iq5i9mNIWf6YmemLm6V-140" edge="1">
          <mxGeometry width="50" height="50" relative="1" as="geometry">
            <mxPoint x="-40" y="730" as="sourcePoint" />
            <mxPoint x="10" y="680" as="targetPoint" />
          </mxGeometry>
        </mxCell>
        <mxCell id="5iq5i9mNIWf6YmemLm6V-144" value="" style="endArrow=none;html=1;rounded=0;entryX=0;entryY=0.5;entryDx=0;entryDy=0;exitX=1;exitY=0.5;exitDx=0;exitDy=0;" parent="1" source="5iq5i9mNIWf6YmemLm6V-146" edge="1">
          <mxGeometry width="50" height="50" relative="1" as="geometry">
            <mxPoint x="580" y="258" as="sourcePoint" />
            <mxPoint x="627" y="258" as="targetPoint" />
          </mxGeometry>
        </mxCell>
        <mxCell id="5iq5i9mNIWf6YmemLm6V-147" value="&lt;u&gt;name&lt;/u&gt;" style="ellipse;whiteSpace=wrap;html=1;align=center;" parent="1" vertex="1">
          <mxGeometry x="627" y="190" width="100" height="40" as="geometry" />
        </mxCell>
        <mxCell id="5iq5i9mNIWf6YmemLm6V-148" value="" style="endArrow=none;html=1;rounded=0;entryX=0.5;entryY=1;entryDx=0;entryDy=0;exitX=0.5;exitY=0;exitDx=0;exitDy=0;" parent="1" target="5iq5i9mNIWf6YmemLm6V-147" edge="1">
          <mxGeometry width="50" height="50" relative="1" as="geometry">
            <mxPoint x="677" y="238" as="sourcePoint" />
            <mxPoint x="750" y="226" as="targetPoint" />
          </mxGeometry>
        </mxCell>
        <mxCell id="5iq5i9mNIWf6YmemLm6V-149" value="uri" style="ellipse;whiteSpace=wrap;html=1;align=center;" parent="1" vertex="1">
          <mxGeometry x="740" y="238" width="100" height="40" as="geometry" />
        </mxCell>
        <mxCell id="5iq5i9mNIWf6YmemLm6V-150" value="" style="endArrow=none;html=1;rounded=0;entryX=1;entryY=0.5;entryDx=0;entryDy=0;exitX=0;exitY=0.5;exitDx=0;exitDy=0;" parent="1" source="5iq5i9mNIWf6YmemLm6V-149" edge="1">
          <mxGeometry width="50" height="50" relative="1" as="geometry">
            <mxPoint x="700" y="276" as="sourcePoint" />
            <mxPoint x="727" y="258" as="targetPoint" />
          </mxGeometry>
        </mxCell>
        <mxCell id="5iq5i9mNIWf6YmemLm6V-151" value="&lt;b&gt;Social account&lt;/b&gt;" style="shape=ext;margin=3;double=1;whiteSpace=wrap;html=1;align=center;rounded=1;shadow=0;glass=0;strokeWidth=2;" parent="1" vertex="1">
          <mxGeometry x="627" y="238" width="100" height="40" as="geometry" />
        </mxCell>
        <mxCell id="5iq5i9mNIWf6YmemLm6V-152" value="Link" style="shape=rhombus;double=1;perimeter=rhombusPerimeter;whiteSpace=wrap;html=1;align=center;" parent="1" vertex="1">
          <mxGeometry x="462.5" y="228" width="120" height="60" as="geometry" />
        </mxCell>
        <mxCell id="5iq5i9mNIWf6YmemLm6V-153" value="period" style="ellipse;whiteSpace=wrap;html=1;align=center;" parent="1" vertex="1">
          <mxGeometry x="70" y="645" width="100" height="40" as="geometry" />
        </mxCell>
        <mxCell id="5iq5i9mNIWf6YmemLm6V-154" value="" style="endArrow=none;html=1;rounded=0;entryX=0;entryY=1;entryDx=0;entryDy=0;exitX=1;exitY=0;exitDx=0;exitDy=0;" parent="1" source="5iq5i9mNIWf6YmemLm6V-153" target="5iq5i9mNIWf6YmemLm6V-54" edge="1">
          <mxGeometry width="50" height="50" relative="1" as="geometry">
            <mxPoint x="-20" y="780" as="sourcePoint" />
            <mxPoint x="30" y="730" as="targetPoint" />
          </mxGeometry>
        </mxCell>
        <mxCell id="5iq5i9mNIWf6YmemLm6V-157" value="&lt;b&gt;Address&lt;/b&gt;" style="shape=ext;margin=3;double=1;whiteSpace=wrap;html=1;align=center;rounded=1;shadow=0;glass=0;strokeWidth=2;" parent="1" vertex="1">
          <mxGeometry x="570" y="364" width="100" height="40" as="geometry" />
        </mxCell>
        <mxCell id="5iq5i9mNIWf6YmemLm6V-158" value="Resident" style="shape=rhombus;double=1;perimeter=rhombusPerimeter;whiteSpace=wrap;html=1;align=center;" parent="1" vertex="1">
          <mxGeometry x="400" y="355" width="120" height="60" as="geometry" />
        </mxCell>
        <mxCell id="5iq5i9mNIWf6YmemLm6V-159" value="" style="endArrow=none;html=1;rounded=0;exitX=0;exitY=0.5;exitDx=0;exitDy=0;entryX=1;entryY=0.5;entryDx=0;entryDy=0;" parent="1" source="LrbtKrgW1hB7gZl7j8Xs-41" target="5iq5i9mNIWf6YmemLm6V-158" edge="1">
          <mxGeometry width="50" height="50" relative="1" as="geometry">
            <mxPoint x="690" y="385" as="sourcePoint" />
            <mxPoint x="-60" y="315" as="targetPoint" />
          </mxGeometry>
        </mxCell>
        <mxCell id="5iq5i9mNIWf6YmemLm6V-160" value="" style="endArrow=none;html=1;rounded=0;exitX=0;exitY=1;exitDx=0;exitDy=0;entryX=1;entryY=0;entryDx=0;entryDy=0;" parent="1" source="5iq5i9mNIWf6YmemLm6V-81" target="5iq5i9mNIWf6YmemLm6V-157" edge="1">
          <mxGeometry width="50" height="50" relative="1" as="geometry">
            <mxPoint x="580" y="394" as="sourcePoint" />
            <mxPoint x="630" y="344" as="targetPoint" />
          </mxGeometry>
        </mxCell>
        <mxCell id="5iq5i9mNIWf6YmemLm6V-161" value="" style="endArrow=none;html=1;rounded=0;exitX=0.5;exitY=0;exitDx=0;exitDy=0;entryX=0.5;entryY=1;entryDx=0;entryDy=0;" parent="1" source="5iq5i9mNIWf6YmemLm6V-157" target="5iq5i9mNIWf6YmemLm6V-80" edge="1">
          <mxGeometry width="50" height="50" relative="1" as="geometry">
            <mxPoint x="580" y="394" as="sourcePoint" />
            <mxPoint x="630" y="344" as="targetPoint" />
          </mxGeometry>
        </mxCell>
        <mxCell id="5iq5i9mNIWf6YmemLm6V-162" value="" style="endArrow=none;html=1;rounded=0;exitX=0;exitY=0.5;exitDx=0;exitDy=0;entryX=1;entryY=0.5;entryDx=0;entryDy=0;" parent="1" source="5iq5i9mNIWf6YmemLm6V-79" target="5iq5i9mNIWf6YmemLm6V-157" edge="1">
          <mxGeometry width="50" height="50" relative="1" as="geometry">
            <mxPoint x="580" y="394" as="sourcePoint" />
            <mxPoint x="630" y="344" as="targetPoint" />
          </mxGeometry>
        </mxCell>
        <mxCell id="5iq5i9mNIWf6YmemLm6V-163" value="" style="endArrow=none;html=1;rounded=0;exitX=0;exitY=0;exitDx=0;exitDy=0;entryX=1;entryY=1;entryDx=0;entryDy=0;" parent="1" source="5iq5i9mNIWf6YmemLm6V-91" target="5iq5i9mNIWf6YmemLm6V-157" edge="1">
          <mxGeometry width="50" height="50" relative="1" as="geometry">
            <mxPoint x="580" y="394" as="sourcePoint" />
            <mxPoint x="630" y="344" as="targetPoint" />
          </mxGeometry>
        </mxCell>
        <mxCell id="5iq5i9mNIWf6YmemLm6V-164" value="" style="endArrow=none;html=1;rounded=0;exitX=0.5;exitY=0;exitDx=0;exitDy=0;entryX=0.5;entryY=1;entryDx=0;entryDy=0;" parent="1" source="5iq5i9mNIWf6YmemLm6V-89" target="5iq5i9mNIWf6YmemLm6V-157" edge="1">
          <mxGeometry width="50" height="50" relative="1" as="geometry">
            <mxPoint x="580" y="394" as="sourcePoint" />
            <mxPoint x="630" y="344" as="targetPoint" />
          </mxGeometry>
        </mxCell>
        <mxCell id="5iq5i9mNIWf6YmemLm6V-167" value="Attachment" style="shape=rhombus;double=1;perimeter=rhombusPerimeter;whiteSpace=wrap;html=1;align=center;" parent="1" vertex="1">
          <mxGeometry x="397.5" y="125" width="120" height="60" as="geometry" />
        </mxCell>
        <mxCell id="5iq5i9mNIWf6YmemLm6V-168" value="" style="endArrow=none;html=1;rounded=0;entryX=1;entryY=0;entryDx=0;entryDy=0;exitX=0;exitY=0.5;exitDx=0;exitDy=0;" parent="1" source="5iq5i9mNIWf6YmemLm6V-172" target="5iq5i9mNIWf6YmemLm6V-62" edge="1">
          <mxGeometry width="50" height="50" relative="1" as="geometry">
            <mxPoint x="261" y="260" as="sourcePoint" />
            <mxPoint x="274" y="248" as="targetPoint" />
            <Array as="points" />
          </mxGeometry>
        </mxCell>
        <mxCell id="5iq5i9mNIWf6YmemLm6V-169" value="&lt;b&gt;Image&lt;/b&gt;" style="shape=ext;margin=3;double=1;whiteSpace=wrap;html=1;align=center;rounded=1;shadow=0;glass=0;strokeWidth=2;" parent="1" vertex="1">
          <mxGeometry x="570" y="135" width="100" height="40" as="geometry" />
        </mxCell>
        <mxCell id="5iq5i9mNIWf6YmemLm6V-170" value="" style="endArrow=none;html=1;rounded=0;entryX=1;entryY=0.5;entryDx=0;entryDy=0;exitX=0;exitY=0.5;exitDx=0;exitDy=0;" parent="1" source="5iq5i9mNIWf6YmemLm6V-171" target="5iq5i9mNIWf6YmemLm6V-167" edge="1">
          <mxGeometry width="50" height="50" relative="1" as="geometry">
            <mxPoint x="-100" y="460" as="sourcePoint" />
            <mxPoint x="-50" y="410" as="targetPoint" />
          </mxGeometry>
        </mxCell>
        <mxCell id="5iq5i9mNIWf6YmemLm6V-173" value="label" style="ellipse;whiteSpace=wrap;html=1;align=center;" parent="1" vertex="1">
          <mxGeometry x="570" y="85" width="100" height="40" as="geometry" />
        </mxCell>
        <mxCell id="5iq5i9mNIWf6YmemLm6V-174" value="path" style="ellipse;whiteSpace=wrap;html=1;align=center;" parent="1" vertex="1">
          <mxGeometry x="680" y="135" width="100" height="40" as="geometry" />
        </mxCell>
        <mxCell id="5iq5i9mNIWf6YmemLm6V-175" value="" style="endArrow=none;html=1;rounded=0;entryX=0.5;entryY=0;entryDx=0;entryDy=0;exitX=0.5;exitY=1;exitDx=0;exitDy=0;" parent="1" source="5iq5i9mNIWf6YmemLm6V-173" target="5iq5i9mNIWf6YmemLm6V-169" edge="1">
          <mxGeometry width="50" height="50" relative="1" as="geometry">
            <mxPoint x="450" y="213" as="sourcePoint" />
            <mxPoint x="500" y="163" as="targetPoint" />
            <Array as="points" />
          </mxGeometry>
        </mxCell>
        <mxCell id="5iq5i9mNIWf6YmemLm6V-176" value="" style="endArrow=none;html=1;rounded=0;entryX=1;entryY=0.5;entryDx=0;entryDy=0;exitX=0;exitY=0.5;exitDx=0;exitDy=0;" parent="1" source="5iq5i9mNIWf6YmemLm6V-174" target="5iq5i9mNIWf6YmemLm6V-169" edge="1">
          <mxGeometry width="50" height="50" relative="1" as="geometry">
            <mxPoint x="450" y="213" as="sourcePoint" />
            <mxPoint x="500" y="163" as="targetPoint" />
            <Array as="points" />
          </mxGeometry>
        </mxCell>
        <mxCell id="5iq5i9mNIWf6YmemLm6V-177" value="" style="endArrow=none;html=1;rounded=0;entryX=0.5;entryY=1;entryDx=0;entryDy=0;exitX=0.5;exitY=0;exitDx=0;exitDy=0;" parent="1" source="5iq5i9mNIWf6YmemLm6V-186" target="5iq5i9mNIWf6YmemLm6V-62" edge="1">
          <mxGeometry width="50" height="50" relative="1" as="geometry">
            <mxPoint x="130" y="540" as="sourcePoint" />
            <mxPoint x="200" y="570" as="targetPoint" />
            <Array as="points" />
          </mxGeometry>
        </mxCell>
        <mxCell id="5iq5i9mNIWf6YmemLm6V-179" value="Is" style="shape=rhombus;perimeter=rhombusPerimeter;whiteSpace=wrap;html=1;align=center;" parent="1" vertex="1">
          <mxGeometry x="320" y="362" width="66" height="60" as="geometry" />
        </mxCell>
        <mxCell id="5iq5i9mNIWf6YmemLm6V-180" value="" style="endArrow=none;html=1;rounded=0;exitX=0.75;exitY=0;exitDx=0;exitDy=0;entryX=0;entryY=1;entryDx=0;entryDy=0;" parent="1" target="5iq5i9mNIWf6YmemLm6V-179" edge="1" source="oJpGRDjbuP6UKvOXRU2A-17">
          <mxGeometry width="50" height="50" relative="1" as="geometry">
            <mxPoint x="90" y="607" as="sourcePoint" />
            <mxPoint x="170" y="560" as="targetPoint" />
            <Array as="points" />
          </mxGeometry>
        </mxCell>
        <mxCell id="5iq5i9mNIWf6YmemLm6V-189" value="name" style="ellipse;whiteSpace=wrap;html=1;align=center;" parent="1" vertex="1">
          <mxGeometry x="84.5" y="501.75" width="100" height="40" as="geometry" />
        </mxCell>
        <mxCell id="5iq5i9mNIWf6YmemLm6V-190" value="" style="endArrow=none;html=1;rounded=0;entryX=1;entryY=0.5;entryDx=0;entryDy=0;exitX=0;exitY=0.75;exitDx=0;exitDy=0;" parent="1" target="5iq5i9mNIWf6YmemLm6V-189" edge="1">
          <mxGeometry width="50" height="50" relative="1" as="geometry">
            <mxPoint x="194.5" y="510" as="sourcePoint" />
            <mxPoint x="214.5" y="564" as="targetPoint" />
          </mxGeometry>
        </mxCell>
        <mxCell id="5iq5i9mNIWf6YmemLm6V-191" value="name" style="ellipse;whiteSpace=wrap;html=1;align=center;" parent="1" vertex="1">
          <mxGeometry x="520" y="480" width="100" height="40" as="geometry" />
        </mxCell>
        <mxCell id="5iq5i9mNIWf6YmemLm6V-192" value="" style="endArrow=none;html=1;rounded=0;entryX=1;entryY=0.5;entryDx=0;entryDy=0;exitX=0;exitY=0.5;exitDx=0;exitDy=0;" parent="1" source="5iq5i9mNIWf6YmemLm6V-191" edge="1">
          <mxGeometry width="50" height="50" relative="1" as="geometry">
            <mxPoint x="260" y="680" as="sourcePoint" />
            <mxPoint x="510" y="500" as="targetPoint" />
          </mxGeometry>
        </mxCell>
        <mxCell id="LrbtKrgW1hB7gZl7j8Xs-1" value="&lt;b&gt;Job offer&lt;/b&gt;" style="shape=ext;margin=3;double=1;whiteSpace=wrap;html=1;align=center;rounded=1;shadow=0;glass=0;strokeWidth=2;" parent="1" vertex="1">
          <mxGeometry x="490" y="730" width="100" height="40" as="geometry" />
        </mxCell>
        <mxCell id="LrbtKrgW1hB7gZl7j8Xs-2" value="" style="endArrow=none;html=1;rounded=0;entryX=0.5;entryY=1;entryDx=0;entryDy=0;exitX=0.5;exitY=0;exitDx=0;exitDy=0;" parent="1" source="5iq5i9mNIWf6YmemLm6V-104" target="5iq5i9mNIWf6YmemLm6V-108" edge="1">
          <mxGeometry width="50" height="50" relative="1" as="geometry">
            <mxPoint x="532.5" y="813" as="sourcePoint" />
            <mxPoint x="532.5" y="775" as="targetPoint" />
          </mxGeometry>
        </mxCell>
        <mxCell id="5iq5i9mNIWf6YmemLm6V-108" value="(0,n)" style="text;html=1;align=center;verticalAlign=middle;whiteSpace=wrap;rounded=0;" parent="1" vertex="1">
          <mxGeometry x="525" y="775" width="30" height="15" as="geometry" />
        </mxCell>
        <mxCell id="LrbtKrgW1hB7gZl7j8Xs-3" value="" style="endArrow=none;html=1;rounded=0;entryX=1;entryY=0.5;entryDx=0;entryDy=0;exitX=0;exitY=0.5;exitDx=0;exitDy=0;" parent="1" source="5iq5i9mNIWf6YmemLm6V-129" target="5iq5i9mNIWf6YmemLm6V-53" edge="1">
          <mxGeometry width="50" height="50" relative="1" as="geometry">
            <mxPoint x="440" y="707" as="sourcePoint" />
            <mxPoint x="310" y="707" as="targetPoint" />
          </mxGeometry>
        </mxCell>
        <mxCell id="5iq5i9mNIWf6YmemLm6V-53" value="Makes" style="shape=rhombus;double=1;perimeter=rhombusPerimeter;whiteSpace=wrap;html=1;align=center;" parent="1" vertex="1">
          <mxGeometry x="480" y="565" width="120" height="60" as="geometry" />
        </mxCell>
        <mxCell id="LrbtKrgW1hB7gZl7j8Xs-4" value="" style="endArrow=none;html=1;rounded=0;entryX=0.5;entryY=0;entryDx=0;entryDy=0;exitX=0.5;exitY=1;exitDx=0;exitDy=0;" parent="1" source="5iq5i9mNIWf6YmemLm6V-53" target="5iq5i9mNIWf6YmemLm6V-42" edge="1">
          <mxGeometry width="50" height="50" relative="1" as="geometry">
            <mxPoint x="345" y="737" as="sourcePoint" />
            <mxPoint x="345" y="910" as="targetPoint" />
            <Array as="points" />
          </mxGeometry>
        </mxCell>
        <mxCell id="5iq5i9mNIWf6YmemLm6V-42" value="(1,1)" style="text;html=1;align=center;verticalAlign=middle;whiteSpace=wrap;rounded=0;" parent="1" vertex="1">
          <mxGeometry x="530" y="701" width="20" height="20" as="geometry" />
        </mxCell>
        <mxCell id="LrbtKrgW1hB7gZl7j8Xs-13" value="Job contract" style="shape=rhombus;double=1;perimeter=rhombusPerimeter;whiteSpace=wrap;html=1;align=center;" parent="1" vertex="1">
          <mxGeometry x="317.5" y="564" width="120" height="60" as="geometry" />
        </mxCell>
        <mxCell id="LrbtKrgW1hB7gZl7j8Xs-17" value="" style="endArrow=none;html=1;rounded=0;entryX=0.5;entryY=0;entryDx=0;entryDy=0;exitX=0.25;exitY=1;exitDx=0;exitDy=0;" parent="1" target="LrbtKrgW1hB7gZl7j8Xs-13" edge="1" source="oJpGRDjbuP6UKvOXRU2A-23">
          <mxGeometry width="50" height="50" relative="1" as="geometry">
            <mxPoint x="250" y="647" as="sourcePoint" />
            <mxPoint x="407.5" y="540" as="targetPoint" />
            <Array as="points" />
          </mxGeometry>
        </mxCell>
        <mxCell id="LrbtKrgW1hB7gZl7j8Xs-29" value="" style="endArrow=none;html=1;rounded=0;exitX=0.5;exitY=1;exitDx=0;exitDy=0;entryX=0.5;entryY=0;entryDx=0;entryDy=0;" parent="1" source="5iq5i9mNIWf6YmemLm6V-5" target="5iq5i9mNIWf6YmemLm6V-28" edge="1">
          <mxGeometry width="50" height="50" relative="1" as="geometry">
            <mxPoint x="-200" y="135" as="sourcePoint" />
            <mxPoint x="-200" y="180" as="targetPoint" />
          </mxGeometry>
        </mxCell>
        <mxCell id="5iq5i9mNIWf6YmemLm6V-28" value="(1,n)" style="text;html=1;align=center;verticalAlign=middle;whiteSpace=wrap;rounded=0;" parent="1" vertex="1">
          <mxGeometry x="-215" y="140" width="30" height="20" as="geometry" />
        </mxCell>
        <mxCell id="LrbtKrgW1hB7gZl7j8Xs-31" value="" style="endArrow=none;html=1;rounded=0;entryX=0;entryY=0.5;entryDx=0;entryDy=0;exitX=1;exitY=0.5;exitDx=0;exitDy=0;" parent="1" source="5iq5i9mNIWf6YmemLm6V-23" target="5iq5i9mNIWf6YmemLm6V-26" edge="1">
          <mxGeometry width="50" height="50" relative="1" as="geometry">
            <mxPoint x="-140" y="210" as="sourcePoint" />
            <mxPoint x="-27" y="210" as="targetPoint" />
          </mxGeometry>
        </mxCell>
        <mxCell id="5iq5i9mNIWf6YmemLm6V-26" value="(1,n)" style="text;html=1;align=center;verticalAlign=middle;whiteSpace=wrap;rounded=0;" parent="1" vertex="1">
          <mxGeometry x="-110" y="200" width="30" height="20" as="geometry" />
        </mxCell>
        <mxCell id="LrbtKrgW1hB7gZl7j8Xs-32" value="" style="endArrow=none;html=1;rounded=0;exitX=0;exitY=0.5;exitDx=0;exitDy=0;entryX=1;entryY=0.5;entryDx=0;entryDy=0;" parent="1" source="5iq5i9mNIWf6YmemLm6V-21" target="5iq5i9mNIWf6YmemLm6V-27" edge="1">
          <mxGeometry width="50" height="50" relative="1" as="geometry">
            <mxPoint x="103" y="210" as="sourcePoint" />
            <mxPoint x="30" y="210" as="targetPoint" />
            <Array as="points" />
          </mxGeometry>
        </mxCell>
        <mxCell id="5iq5i9mNIWf6YmemLm6V-27" value="(1,n)" style="text;html=1;align=center;verticalAlign=middle;whiteSpace=wrap;rounded=0;" parent="1" vertex="1">
          <mxGeometry x="40" y="200" width="30" height="20" as="geometry" />
        </mxCell>
        <mxCell id="LrbtKrgW1hB7gZl7j8Xs-34" value="" style="endArrow=none;html=1;rounded=0;entryX=1;entryY=0.5;entryDx=0;entryDy=0;exitX=0;exitY=0.5;exitDx=0;exitDy=0;" parent="1" source="5iq5i9mNIWf6YmemLm6V-63" target="5iq5i9mNIWf6YmemLm6V-25" edge="1">
          <mxGeometry width="50" height="50" relative="1" as="geometry">
            <mxPoint x="293" y="115" as="sourcePoint" />
            <mxPoint x="213" y="115" as="targetPoint" />
          </mxGeometry>
        </mxCell>
        <mxCell id="5iq5i9mNIWf6YmemLm6V-25" value="(0,1)" style="text;html=1;align=center;verticalAlign=middle;whiteSpace=wrap;rounded=0;" parent="1" vertex="1">
          <mxGeometry x="222.5" y="105" width="30" height="20" as="geometry" />
        </mxCell>
        <mxCell id="LrbtKrgW1hB7gZl7j8Xs-35" value="" style="endArrow=none;html=1;rounded=0;entryX=0.5;entryY=1;entryDx=0;entryDy=0;exitX=0.5;exitY=0;exitDx=0;exitDy=0;" parent="1" source="5iq5i9mNIWf6YmemLm6V-62" target="5iq5i9mNIWf6YmemLm6V-67" edge="1">
          <mxGeometry width="50" height="50" relative="1" as="geometry">
            <mxPoint x="170" y="442" as="sourcePoint" />
            <mxPoint x="353" y="145" as="targetPoint" />
          </mxGeometry>
        </mxCell>
        <mxCell id="5iq5i9mNIWf6YmemLm6V-67" value="(1,1)" style="text;html=1;align=center;verticalAlign=middle;whiteSpace=wrap;rounded=0;" parent="1" vertex="1">
          <mxGeometry x="337" y="207" width="31" height="20" as="geometry" />
        </mxCell>
        <mxCell id="LrbtKrgW1hB7gZl7j8Xs-36" value="" style="endArrow=none;html=1;rounded=0;exitX=1;exitY=0.5;exitDx=0;exitDy=0;entryX=0;entryY=0.5;entryDx=0;entryDy=0;" parent="1" source="5iq5i9mNIWf6YmemLm6V-62" target="5iq5i9mNIWf6YmemLm6V-145" edge="1">
          <mxGeometry width="50" height="50" relative="1" as="geometry">
            <mxPoint x="403" y="258" as="sourcePoint" />
            <mxPoint x="470" y="258" as="targetPoint" />
            <Array as="points" />
          </mxGeometry>
        </mxCell>
        <mxCell id="5iq5i9mNIWf6YmemLm6V-145" value="(0,n)" style="text;html=1;align=center;verticalAlign=middle;whiteSpace=wrap;rounded=0;" parent="1" vertex="1">
          <mxGeometry x="412" y="248" width="26" height="20" as="geometry" />
        </mxCell>
        <mxCell id="LrbtKrgW1hB7gZl7j8Xs-37" value="" style="endArrow=none;html=1;rounded=0;entryX=0;entryY=0.5;entryDx=0;entryDy=0;exitX=1;exitY=0.5;exitDx=0;exitDy=0;" parent="1" source="5iq5i9mNIWf6YmemLm6V-152" target="5iq5i9mNIWf6YmemLm6V-146" edge="1">
          <mxGeometry width="50" height="50" relative="1" as="geometry">
            <mxPoint x="583" y="258" as="sourcePoint" />
            <mxPoint x="637" y="258" as="targetPoint" />
          </mxGeometry>
        </mxCell>
        <mxCell id="5iq5i9mNIWf6YmemLm6V-146" value="(1,1)" style="text;html=1;align=center;verticalAlign=middle;whiteSpace=wrap;rounded=0;" parent="1" vertex="1">
          <mxGeometry x="590" y="251.5" width="27" height="13" as="geometry" />
        </mxCell>
        <mxCell id="LrbtKrgW1hB7gZl7j8Xs-39" value="" style="endArrow=none;html=1;rounded=0;entryX=0.5;entryY=1;entryDx=0;entryDy=0;exitX=0.5;exitY=0;exitDx=0;exitDy=0;" parent="1" source="5iq5i9mNIWf6YmemLm6V-179" target="5iq5i9mNIWf6YmemLm6V-186" edge="1">
          <mxGeometry width="50" height="50" relative="1" as="geometry">
            <mxPoint x="353" y="362" as="sourcePoint" />
            <mxPoint x="353" y="278" as="targetPoint" />
            <Array as="points" />
          </mxGeometry>
        </mxCell>
        <mxCell id="5iq5i9mNIWf6YmemLm6V-186" value="(0,1)" style="text;html=1;align=center;verticalAlign=middle;whiteSpace=wrap;rounded=0;" parent="1" vertex="1">
          <mxGeometry x="339.25" y="288" width="27.5" height="15" as="geometry" />
        </mxCell>
        <mxCell id="LrbtKrgW1hB7gZl7j8Xs-40" value="" style="endArrow=none;html=1;rounded=0;exitX=1;exitY=0.5;exitDx=0;exitDy=0;entryX=1;entryY=0.5;entryDx=0;entryDy=0;" parent="1" edge="1">
          <mxGeometry width="50" height="50" relative="1" as="geometry">
            <mxPoint x="560" y="384" as="sourcePoint" />
            <mxPoint x="560" y="384" as="targetPoint" />
          </mxGeometry>
        </mxCell>
        <mxCell id="LrbtKrgW1hB7gZl7j8Xs-42" value="" style="endArrow=none;html=1;rounded=0;exitX=0;exitY=0.5;exitDx=0;exitDy=0;entryX=1;entryY=0.5;entryDx=0;entryDy=0;" parent="1" source="5iq5i9mNIWf6YmemLm6V-157" target="LrbtKrgW1hB7gZl7j8Xs-41" edge="1">
          <mxGeometry width="50" height="50" relative="1" as="geometry">
            <mxPoint x="570" y="384" as="sourcePoint" />
            <mxPoint x="390" y="384" as="targetPoint" />
          </mxGeometry>
        </mxCell>
        <mxCell id="LrbtKrgW1hB7gZl7j8Xs-41" value="(1,1)" style="text;html=1;align=center;verticalAlign=middle;whiteSpace=wrap;rounded=0;" parent="1" vertex="1">
          <mxGeometry x="530" y="374" width="30" height="20" as="geometry" />
        </mxCell>
        <mxCell id="LrbtKrgW1hB7gZl7j8Xs-43" value="" style="endArrow=none;html=1;rounded=0;entryX=1;entryY=0.5;entryDx=0;entryDy=0;exitX=0.5;exitY=0;exitDx=0;exitDy=0;" parent="1" source="5iq5i9mNIWf6YmemLm6V-158" target="5iq5i9mNIWf6YmemLm6V-166" edge="1">
          <mxGeometry width="50" height="50" relative="1" as="geometry">
            <mxPoint x="460" y="355" as="sourcePoint" />
            <mxPoint x="403" y="278" as="targetPoint" />
            <Array as="points">
              <mxPoint x="460" y="278" />
            </Array>
          </mxGeometry>
        </mxCell>
        <mxCell id="5iq5i9mNIWf6YmemLm6V-166" value="(0,1)" style="text;html=1;align=center;verticalAlign=middle;whiteSpace=wrap;rounded=0;" parent="1" vertex="1">
          <mxGeometry x="412.5" y="267" width="27.5" height="22" as="geometry" />
        </mxCell>
        <mxCell id="LrbtKrgW1hB7gZl7j8Xs-44" value="" style="endArrow=none;html=1;rounded=0;entryX=1;entryY=0.5;entryDx=0;entryDy=0;exitX=0.5;exitY=1;exitDx=0;exitDy=0;" parent="1" source="5iq5i9mNIWf6YmemLm6V-167" target="5iq5i9mNIWf6YmemLm6V-172" edge="1">
          <mxGeometry width="50" height="50" relative="1" as="geometry">
            <mxPoint x="455.5" y="195" as="sourcePoint" />
            <mxPoint x="445" y="236.99999999999997" as="targetPoint" />
            <Array as="points">
              <mxPoint x="458" y="238" />
            </Array>
          </mxGeometry>
        </mxCell>
        <mxCell id="5iq5i9mNIWf6YmemLm6V-172" value="(0,n)" style="text;html=1;align=center;verticalAlign=middle;whiteSpace=wrap;rounded=0;" parent="1" vertex="1">
          <mxGeometry x="411.5" y="227" width="32.5" height="22" as="geometry" />
        </mxCell>
        <mxCell id="LrbtKrgW1hB7gZl7j8Xs-46" value="" style="endArrow=none;html=1;rounded=0;entryX=1;entryY=0.5;entryDx=0;entryDy=0;exitX=0;exitY=0.5;exitDx=0;exitDy=0;" parent="1" source="5iq5i9mNIWf6YmemLm6V-169" target="5iq5i9mNIWf6YmemLm6V-171" edge="1">
          <mxGeometry width="50" height="50" relative="1" as="geometry">
            <mxPoint x="570" y="155" as="sourcePoint" />
            <mxPoint x="358" y="155" as="targetPoint" />
          </mxGeometry>
        </mxCell>
        <mxCell id="5iq5i9mNIWf6YmemLm6V-171" value="(1,1)" style="text;html=1;align=center;verticalAlign=middle;whiteSpace=wrap;rounded=0;" parent="1" vertex="1">
          <mxGeometry x="530" y="147.5" width="30" height="15" as="geometry" />
        </mxCell>
        <mxCell id="LrbtKrgW1hB7gZl7j8Xs-47" value="" style="endArrow=none;html=1;rounded=0;entryX=0;entryY=0.75;entryDx=0;entryDy=0;exitX=1;exitY=0.5;exitDx=0;exitDy=0;" parent="1" source="5iq5i9mNIWf6YmemLm6V-82" target="5iq5i9mNIWf6YmemLm6V-62" edge="1">
          <mxGeometry width="50" height="50" relative="1" as="geometry">
            <mxPoint x="270" y="290" as="sourcePoint" />
            <mxPoint x="320" y="240" as="targetPoint" />
          </mxGeometry>
        </mxCell>
        <mxCell id="LrbtKrgW1hB7gZl7j8Xs-48" value="" style="endArrow=none;html=1;rounded=0;exitX=0.75;exitY=0;exitDx=0;exitDy=0;entryX=0.25;entryY=1;entryDx=0;entryDy=0;" parent="1" source="oJpGRDjbuP6UKvOXRU2A-15" target="5iq5i9mNIWf6YmemLm6V-62" edge="1">
          <mxGeometry width="50" height="50" relative="1" as="geometry">
            <mxPoint x="244" y="357" as="sourcePoint" />
            <mxPoint x="299.75" y="310" as="targetPoint" />
            <Array as="points" />
          </mxGeometry>
        </mxCell>
        <mxCell id="LrbtKrgW1hB7gZl7j8Xs-49" value="" style="endArrow=none;html=1;rounded=0;entryX=0;entryY=0.5;entryDx=0;entryDy=0;exitX=1;exitY=0.5;exitDx=0;exitDy=0;" parent="1" source="5iq5i9mNIWf6YmemLm6V-116" target="5iq5i9mNIWf6YmemLm6V-128" edge="1">
          <mxGeometry width="50" height="50" relative="1" as="geometry">
            <mxPoint x="65" y="387" as="sourcePoint" />
            <mxPoint x="184" y="387" as="targetPoint" />
          </mxGeometry>
        </mxCell>
        <mxCell id="5iq5i9mNIWf6YmemLm6V-128" value="(0,n)" style="text;html=1;align=center;verticalAlign=middle;whiteSpace=wrap;rounded=0;" parent="1" vertex="1">
          <mxGeometry x="147.5" y="377" width="30" height="20" as="geometry" />
        </mxCell>
        <mxCell id="LrbtKrgW1hB7gZl7j8Xs-50" value="" style="endArrow=none;html=1;rounded=0;entryX=1;entryY=1;entryDx=0;entryDy=0;exitX=0.25;exitY=0;exitDx=0;exitDy=0;" parent="1" source="oJpGRDjbuP6UKvOXRU2A-19" target="5iq5i9mNIWf6YmemLm6V-179" edge="1">
          <mxGeometry width="50" height="50" relative="1" as="geometry">
            <mxPoint x="300" y="570" as="sourcePoint" />
            <mxPoint x="350" y="520" as="targetPoint" />
          </mxGeometry>
        </mxCell>
        <mxCell id="oJpGRDjbuP6UKvOXRU2A-1" value="" style="endArrow=none;html=1;rounded=0;exitX=0.5;exitY=0;exitDx=0;exitDy=0;entryX=0.5;entryY=1;entryDx=0;entryDy=0;" edge="1" parent="1" source="5iq5i9mNIWf6YmemLm6V-103" target="5iq5i9mNIWf6YmemLm6V-109">
          <mxGeometry width="50" height="50" relative="1" as="geometry">
            <mxPoint x="540" y="903" as="sourcePoint" />
            <mxPoint x="540" y="873" as="targetPoint" />
          </mxGeometry>
        </mxCell>
        <mxCell id="5iq5i9mNIWf6YmemLm6V-109" value="(1,1)" style="text;html=1;align=center;verticalAlign=middle;whiteSpace=wrap;rounded=0;" parent="1" vertex="1">
          <mxGeometry x="530" y="890" width="20" height="20" as="geometry" />
        </mxCell>
        <mxCell id="oJpGRDjbuP6UKvOXRU2A-4" value="" style="endArrow=none;html=1;rounded=0;entryX=0.5;entryY=1;entryDx=0;entryDy=0;exitX=0.5;exitY=0;exitDx=0;exitDy=0;" edge="1" parent="1" source="oJpGRDjbuP6UKvOXRU2A-30" target="LrbtKrgW1hB7gZl7j8Xs-13">
          <mxGeometry width="50" height="50" relative="1" as="geometry">
            <mxPoint x="350" y="690" as="sourcePoint" />
            <mxPoint x="400" y="640" as="targetPoint" />
          </mxGeometry>
        </mxCell>
        <mxCell id="oJpGRDjbuP6UKvOXRU2A-5" value="" style="endArrow=none;html=1;rounded=0;entryX=0;entryY=0.5;entryDx=0;entryDy=0;exitX=1;exitY=0.5;exitDx=0;exitDy=0;" edge="1" parent="1" source="5iq5i9mNIWf6YmemLm6V-110" target="5iq5i9mNIWf6YmemLm6V-119">
          <mxGeometry width="50" height="50" relative="1" as="geometry">
            <mxPoint x="-90" y="450" as="sourcePoint" />
            <mxPoint x="-4" y="450" as="targetPoint" />
            <Array as="points" />
          </mxGeometry>
        </mxCell>
        <mxCell id="5iq5i9mNIWf6YmemLm6V-119" value="(1,1)" style="text;html=1;align=center;verticalAlign=middle;whiteSpace=wrap;rounded=0;" parent="1" vertex="1">
          <mxGeometry x="-80" y="440" width="30" height="20" as="geometry" />
        </mxCell>
        <mxCell id="oJpGRDjbuP6UKvOXRU2A-7" value="" style="endArrow=none;html=1;rounded=0;entryX=0;entryY=0.5;entryDx=0;entryDy=0;exitX=1;exitY=0.5;exitDx=0;exitDy=0;" edge="1" parent="1" source="5iq5i9mNIWf6YmemLm6V-96" target="5iq5i9mNIWf6YmemLm6V-110">
          <mxGeometry width="50" height="50" relative="1" as="geometry">
            <mxPoint x="-250" y="470" as="sourcePoint" />
            <mxPoint x="-200" y="420" as="targetPoint" />
          </mxGeometry>
        </mxCell>
        <mxCell id="oJpGRDjbuP6UKvOXRU2A-12" value="" style="endArrow=none;html=1;rounded=0;entryX=0;entryY=0.5;entryDx=0;entryDy=0;exitX=1;exitY=0.5;exitDx=0;exitDy=0;" edge="1" parent="1" source="5iq5i9mNIWf6YmemLm6V-111" target="5iq5i9mNIWf6YmemLm6V-120">
          <mxGeometry width="50" height="50" relative="1" as="geometry">
            <mxPoint x="36" y="450" as="sourcePoint" />
            <mxPoint x="220" y="480" as="targetPoint" />
            <Array as="points" />
          </mxGeometry>
        </mxCell>
        <mxCell id="5iq5i9mNIWf6YmemLm6V-120" value="(0,n)" style="text;html=1;align=center;verticalAlign=middle;whiteSpace=wrap;rounded=0;" parent="1" vertex="1">
          <mxGeometry x="185" y="438.25" width="30" height="23.5" as="geometry" />
        </mxCell>
        <mxCell id="oJpGRDjbuP6UKvOXRU2A-14" value="" style="endArrow=none;html=1;rounded=0;exitX=0.75;exitY=0;exitDx=0;exitDy=0;entryX=0.25;entryY=1;entryDx=0;entryDy=0;" edge="1" parent="1" source="oJpGRDjbuP6UKvOXRU2A-28">
          <mxGeometry width="50" height="50" relative="1" as="geometry">
            <mxPoint x="180" y="580" as="sourcePoint" />
            <mxPoint x="219.5" y="520" as="targetPoint" />
          </mxGeometry>
        </mxCell>
        <mxCell id="oJpGRDjbuP6UKvOXRU2A-16" value="" style="endArrow=none;html=1;rounded=0;exitX=1;exitY=0;exitDx=0;exitDy=0;entryX=0.25;entryY=1;entryDx=0;entryDy=0;" edge="1" parent="1" source="5iq5i9mNIWf6YmemLm6V-113" target="oJpGRDjbuP6UKvOXRU2A-15">
          <mxGeometry width="50" height="50" relative="1" as="geometry">
            <mxPoint x="275" y="372" as="sourcePoint" />
            <mxPoint x="328" y="278" as="targetPoint" />
            <Array as="points" />
          </mxGeometry>
        </mxCell>
        <mxCell id="oJpGRDjbuP6UKvOXRU2A-15" value="(0,n)" style="text;html=1;align=center;verticalAlign=middle;whiteSpace=wrap;rounded=0;" vertex="1" parent="1">
          <mxGeometry x="300" y="295" width="25.5" height="22" as="geometry" />
        </mxCell>
        <mxCell id="oJpGRDjbuP6UKvOXRU2A-18" value="" style="endArrow=none;html=1;rounded=0;exitX=0.5;exitY=0;exitDx=0;exitDy=0;entryX=0.25;entryY=1;entryDx=0;entryDy=0;" edge="1" parent="1" target="oJpGRDjbuP6UKvOXRU2A-17">
          <mxGeometry width="50" height="50" relative="1" as="geometry">
            <mxPoint x="244.5" y="480" as="sourcePoint" />
            <mxPoint x="337" y="407" as="targetPoint" />
            <Array as="points" />
          </mxGeometry>
        </mxCell>
        <mxCell id="oJpGRDjbuP6UKvOXRU2A-17" value="(1,1)" style="text;html=1;align=center;verticalAlign=middle;whiteSpace=wrap;rounded=0;" vertex="1" parent="1">
          <mxGeometry x="250.5" y="455" width="27.5" height="15" as="geometry" />
        </mxCell>
        <mxCell id="oJpGRDjbuP6UKvOXRU2A-20" value="" style="endArrow=none;html=1;rounded=0;entryX=0.75;entryY=1;entryDx=0;entryDy=0;exitX=0.5;exitY=0;exitDx=0;exitDy=0;" edge="1" parent="1" target="oJpGRDjbuP6UKvOXRU2A-19">
          <mxGeometry width="50" height="50" relative="1" as="geometry">
            <mxPoint x="460" y="480" as="sourcePoint" />
            <mxPoint x="369" y="407" as="targetPoint" />
          </mxGeometry>
        </mxCell>
        <mxCell id="oJpGRDjbuP6UKvOXRU2A-19" value="(1,1)" style="text;html=1;align=center;verticalAlign=middle;whiteSpace=wrap;rounded=0;" vertex="1" parent="1">
          <mxGeometry x="425" y="455" width="27.5" height="15" as="geometry" />
        </mxCell>
        <mxCell id="oJpGRDjbuP6UKvOXRU2A-22" value="" style="endArrow=none;html=1;rounded=0;entryX=0.75;entryY=1;entryDx=0;entryDy=0;exitX=0.5;exitY=0;exitDx=0;exitDy=0;" edge="1" parent="1" source="5iq5i9mNIWf6YmemLm6V-53" target="oJpGRDjbuP6UKvOXRU2A-21">
          <mxGeometry width="50" height="50" relative="1" as="geometry">
            <mxPoint x="540" y="565" as="sourcePoint" />
            <mxPoint x="485" y="520" as="targetPoint" />
            <Array as="points" />
          </mxGeometry>
        </mxCell>
        <mxCell id="oJpGRDjbuP6UKvOXRU2A-21" value="(0,n)" style="text;html=1;align=center;verticalAlign=middle;whiteSpace=wrap;rounded=0;" vertex="1" parent="1">
          <mxGeometry x="490" y="526.75" width="30" height="15" as="geometry" />
        </mxCell>
        <mxCell id="oJpGRDjbuP6UKvOXRU2A-24" value="" style="endArrow=none;html=1;rounded=0;entryX=0.75;entryY=0;entryDx=0;entryDy=0;exitX=0.25;exitY=1;exitDx=0;exitDy=0;" edge="1" parent="1" target="oJpGRDjbuP6UKvOXRU2A-23">
          <mxGeometry width="50" height="50" relative="1" as="geometry">
            <mxPoint x="435" y="520" as="sourcePoint" />
            <mxPoint x="378" y="564" as="targetPoint" />
            <Array as="points" />
          </mxGeometry>
        </mxCell>
        <mxCell id="oJpGRDjbuP6UKvOXRU2A-23" value="(0,n)" style="text;html=1;align=center;verticalAlign=middle;whiteSpace=wrap;rounded=0;" vertex="1" parent="1">
          <mxGeometry x="402.5" y="526.75" width="30" height="15" as="geometry" />
        </mxCell>
        <mxCell id="oJpGRDjbuP6UKvOXRU2A-25" value="" style="endArrow=none;html=1;rounded=0;entryX=1;entryY=0.5;entryDx=0;entryDy=0;exitX=0;exitY=0.5;exitDx=0;exitDy=0;" edge="1" parent="1" source="LrbtKrgW1hB7gZl7j8Xs-1" target="LrbtKrgW1hB7gZl7j8Xs-8">
          <mxGeometry width="50" height="50" relative="1" as="geometry">
            <mxPoint x="490" y="750" as="sourcePoint" />
            <mxPoint x="53" y="585" as="targetPoint" />
            <Array as="points" />
          </mxGeometry>
        </mxCell>
        <mxCell id="LrbtKrgW1hB7gZl7j8Xs-8" value="(0,n)" style="text;html=1;align=center;verticalAlign=middle;whiteSpace=wrap;rounded=0;" parent="1" vertex="1">
          <mxGeometry x="440" y="740" width="30" height="20" as="geometry" />
        </mxCell>
        <mxCell id="oJpGRDjbuP6UKvOXRU2A-27" value="" style="endArrow=none;html=1;rounded=0;exitX=0;exitY=0.5;exitDx=0;exitDy=0;entryX=0;entryY=0.5;entryDx=0;entryDy=0;" edge="1" parent="1" source="LrbtKrgW1hB7gZl7j8Xs-8" target="5iq5i9mNIWf6YmemLm6V-135">
          <mxGeometry width="50" height="50" relative="1" as="geometry">
            <mxPoint x="440" y="750" as="sourcePoint" />
            <mxPoint x="53" y="590" as="targetPoint" />
            <Array as="points">
              <mxPoint x="53" y="750" />
            </Array>
          </mxGeometry>
        </mxCell>
        <mxCell id="oJpGRDjbuP6UKvOXRU2A-29" value="" style="endArrow=none;html=1;rounded=0;exitX=1;exitY=0;exitDx=0;exitDy=0;entryX=0;entryY=1;entryDx=0;entryDy=0;" edge="1" parent="1" source="5iq5i9mNIWf6YmemLm6V-135" target="oJpGRDjbuP6UKvOXRU2A-28">
          <mxGeometry width="50" height="50" relative="1" as="geometry">
            <mxPoint x="143" y="570" as="sourcePoint" />
            <mxPoint x="220" y="520" as="targetPoint" />
          </mxGeometry>
        </mxCell>
        <mxCell id="oJpGRDjbuP6UKvOXRU2A-28" value="(0,n)" style="text;html=1;align=center;verticalAlign=middle;whiteSpace=wrap;rounded=0;" vertex="1" parent="1">
          <mxGeometry x="182.5" y="530" width="27.5" height="15.75" as="geometry" />
        </mxCell>
        <mxCell id="oJpGRDjbuP6UKvOXRU2A-31" value="" style="endArrow=none;html=1;rounded=0;entryX=0.5;entryY=1;entryDx=0;entryDy=0;exitX=0.5;exitY=0;exitDx=0;exitDy=0;" edge="1" parent="1" source="5iq5i9mNIWf6YmemLm6V-52" target="oJpGRDjbuP6UKvOXRU2A-30">
          <mxGeometry width="50" height="50" relative="1" as="geometry">
            <mxPoint x="378" y="681" as="sourcePoint" />
            <mxPoint x="378" y="624" as="targetPoint" />
          </mxGeometry>
        </mxCell>
        <mxCell id="oJpGRDjbuP6UKvOXRU2A-30" value="(1,1)" style="text;html=1;align=center;verticalAlign=middle;whiteSpace=wrap;rounded=0;" vertex="1" parent="1">
          <mxGeometry x="363.75" y="657.5" width="27.5" height="15" as="geometry" />
        </mxCell>
        <mxCell id="oJpGRDjbuP6UKvOXRU2A-33" value="" style="endArrow=none;html=1;rounded=0;entryX=1;entryY=0.5;entryDx=0;entryDy=0;exitX=0;exitY=0.75;exitDx=0;exitDy=0;" edge="1" parent="1" source="5iq5i9mNIWf6YmemLm6V-52" target="oJpGRDjbuP6UKvOXRU2A-32">
          <mxGeometry width="50" height="50" relative="1" as="geometry">
            <mxPoint x="328" y="711" as="sourcePoint" />
            <mxPoint x="200" y="645" as="targetPoint" />
            <Array as="points" />
          </mxGeometry>
        </mxCell>
        <mxCell id="oJpGRDjbuP6UKvOXRU2A-32" value="(0,1)" style="text;html=1;align=center;verticalAlign=middle;whiteSpace=wrap;rounded=0;" vertex="1" parent="1">
          <mxGeometry x="290" y="703.5" width="27.5" height="15" as="geometry" />
        </mxCell>
        <mxCell id="oJpGRDjbuP6UKvOXRU2A-35" value="" style="endArrow=none;html=1;rounded=0;entryX=0.5;entryY=1;entryDx=0;entryDy=0;exitX=0;exitY=0.25;exitDx=0;exitDy=0;" edge="1" parent="1" source="5iq5i9mNIWf6YmemLm6V-52" target="oJpGRDjbuP6UKvOXRU2A-34">
          <mxGeometry width="50" height="50" relative="1" as="geometry">
            <mxPoint x="328" y="691" as="sourcePoint" />
            <mxPoint x="294" y="670" as="targetPoint" />
            <Array as="points">
              <mxPoint x="294" y="691" />
            </Array>
          </mxGeometry>
        </mxCell>
        <mxCell id="oJpGRDjbuP6UKvOXRU2A-34" value="(0,1)" style="text;html=1;align=center;verticalAlign=middle;whiteSpace=wrap;rounded=0;" vertex="1" parent="1">
          <mxGeometry x="280.25" y="672.5" width="27.5" height="15" as="geometry" />
        </mxCell>
        <mxCell id="oJpGRDjbuP6UKvOXRU2A-37" value="" style="endArrow=none;html=1;rounded=0;entryX=0.5;entryY=1;entryDx=0;entryDy=0;exitX=0.5;exitY=0;exitDx=0;exitDy=0;" edge="1" parent="1" source="5iq5i9mNIWf6YmemLm6V-54" target="oJpGRDjbuP6UKvOXRU2A-36">
          <mxGeometry width="50" height="50" relative="1" as="geometry">
            <mxPoint x="200" y="585" as="sourcePoint" />
            <mxPoint x="245" y="520" as="targetPoint" />
            <Array as="points">
              <mxPoint x="245" y="585" />
            </Array>
          </mxGeometry>
        </mxCell>
        <mxCell id="oJpGRDjbuP6UKvOXRU2A-36" value="(0,n)" style="text;html=1;align=center;verticalAlign=middle;whiteSpace=wrap;rounded=0;" vertex="1" parent="1">
          <mxGeometry x="230.75" y="523.75" width="27.5" height="15" as="geometry" />
        </mxCell>
        <mxCell id="oJpGRDjbuP6UKvOXRU2A-39" value="" style="endArrow=none;html=1;rounded=0;entryX=0.5;entryY=1;entryDx=0;entryDy=0;exitX=0.5;exitY=0;exitDx=0;exitDy=0;" edge="1" parent="1" source="5iq5i9mNIWf6YmemLm6V-122" target="oJpGRDjbuP6UKvOXRU2A-38">
          <mxGeometry width="50" height="50" relative="1" as="geometry">
            <mxPoint x="294" y="610" as="sourcePoint" />
            <mxPoint x="270" y="520" as="targetPoint" />
            <Array as="points">
              <mxPoint x="294" y="585" />
              <mxPoint x="270" y="585" />
            </Array>
          </mxGeometry>
        </mxCell>
        <mxCell id="oJpGRDjbuP6UKvOXRU2A-38" value="(0,n)" style="text;html=1;align=center;verticalAlign=middle;whiteSpace=wrap;rounded=0;" vertex="1" parent="1">
          <mxGeometry x="255.75" y="536.75" width="27.5" height="15" as="geometry" />
        </mxCell>
        <mxCell id="oJpGRDjbuP6UKvOXRU2A-41" value="&lt;b&gt;Employer&lt;/b&gt;" style="rounded=1;arcSize=10;whiteSpace=wrap;html=1;align=center;strokeWidth=2;" vertex="1" parent="1">
          <mxGeometry x="412.5" y="480" width="100" height="40" as="geometry" />
        </mxCell>
        <mxCell id="oJpGRDjbuP6UKvOXRU2A-42" value="&lt;b&gt;Candidate&lt;/b&gt;" style="rounded=1;arcSize=10;whiteSpace=wrap;html=1;align=center;strokeWidth=2;" vertex="1" parent="1">
          <mxGeometry x="194.5" y="480" width="100" height="40" as="geometry" />
        </mxCell>
      </root>
    </mxGraphModel>
  </diagram>
</mxfile>
